<svg xmlns="http://www.w3.org/2000/svg" viewBox="0 0 480.99 438.27">
  <defs>
    <style>.cls-1,.cls-10{fill:#4042e2;}.cls-14{fill:#febbba}.cls-2{fill:#fff;}.cls-12,.cls-13{fill:#ff7685}.cls-2{opacity:0.7;}.cls-15,.cls-3,.cls-7{fill:none;}.cls-10,.cls-12,.cls-14,.cls-3,.cls-5,.cls-8,.cls-9{stroke:#263238;}.cls-10,.cls-12,.cls-14,.cls-15,.cls-3,.cls-5,.cls-7{stroke-linecap:round;}.cls-10,.cls-12,.cls-14,.cls-15,.cls-3,.cls-5,.cls-7,.cls-8,.cls-9{stroke-linejoin:round;}.cls-4,.cls-5,.cls-9{fill:#263238;}.cls-6{opacity:0.3;}.cls-7{stroke:#000;}.cls-11,.cls-8{fill:#707070;}.cls-12{stroke-width:2px;}.cls-15{stroke:#a1a1a1;}.cls-16{fill:#1DFF56;}
    </style>
  </defs>
  <g id="Capa_2" data-name="Capa 2">
    <g id="Background_Simple" data-name="Background Simple">
      <path class="cls-1" d="M455.69,91.12q-2.38-4-5-7.9c-23.18-34.35-63.07-57.84-102.31-68.46a231.87,231.87,0,0,0-52.71-7.69C179.06,3.12,132.61,95,94.07,118.74S-3.77,183,.19,268,65.41,433,184,438s126.5-48.43,192.71-68.19c43.82-13.08,75-57.26,90.2-98.09C487.69,216,486.71,143.76,455.69,91.12Z"/>
      <path class="cls-2" d="M455.69,91.12q-2.38-4-5-7.9c-23.18-34.35-63.07-57.84-102.31-68.46a231.87,231.87,0,0,0-52.71-7.69C179.06,3.12,132.61,95,94.07,118.74S-3.77,183,.19,268,65.41,433,184,438s126.5-48.43,192.71-68.19c43.82-13.08,75-57.26,90.2-98.09C487.69,216,486.71,143.76,455.69,91.12Z"/>
      <line class="cls-3" x1="400.85" y1="426.38" x2="478.79" y2="426.38"/>
      <line class="cls-3" x1="34.17" y1="426.38" x2="393.19" y2="426.38"/>
      <line class="cls-3" x1="13.09" y1="426.38" x2="28.42" y2="426.38"/>
      <path class="cls-4" d="M439.89,324.5h0a.08.08,0,0,0-.05-.1.08.08,0,0,0-.11,0,109.65,109.65,0,0,0-5.71,17.9,168.4,168.4,0,0,0-3.15,18.56l-.44,4.69c-.07.78-.16,1.56-.21,2.35l-.13,2.35c-.07,1.57-.17,3.14-.21,4.71l0,4.71.06,2.36c0,.78.09,1.57.14,2.35.12,1.57.21,3.14.36,4.7.3,3.12.77,6.23,1.25,9.33a.08.08,0,0,0,.08.07.09.09,0,0,0,.09-.09h0c0-1.57-.08-3.14-.11-4.7s-.19-3.12-.16-4.68,0-3.12-.05-4.68l-.05-2.33,0-2.34,0-4.67.13-4.67,0-2.34c0-.77.09-1.55.13-2.33l.29-4.66a164.93,164.93,0,0,1,2.64-18.51A108,108,0,0,1,439.89,324.5Z"/>
      <path class="cls-4" d="M440.55,348.92a.08.08,0,1,0-.15-.05,110.35,110.35,0,0,0-3.33,11.86,113.73,113.73,0,0,0-2,12.19c-.41,4.09-.87,8.18-.93,12.29a101.57,101.57,0,0,0,.44,12.33.07.07,0,0,0,.07.07.07.07,0,0,0,.09-.07c.48-4.09.77-8.17,1.05-12.26s.33-8.16.6-12.24a108.23,108.23,0,0,1,1.45-12.15A112.28,112.28,0,0,1,440.55,348.92Z"/>
      <path class="cls-4" d="M454.1,357.51a.09.09,0,0,0-.12,0,41.25,41.25,0,0,0-9.05,7.89,36.51,36.51,0,0,0-3.54,4.92l-.73,1.38-.57,1.42c-.2.48-.35,1-.5,1.45s-.31,1-.44,1.46A58.54,58.54,0,0,0,437.28,388a69,69,0,0,0,.45,12,.1.1,0,0,0,.07.08.08.08,0,0,0,.09-.08l1-11.91a106.39,106.39,0,0,1,1.5-11.74c.11-.48.25-.95.37-1.42a10.79,10.79,0,0,1,.42-1.4l.48-1.38.62-1.3a35.26,35.26,0,0,1,3.25-4.93,40.9,40.9,0,0,1,8.5-8.27h0A.08.08,0,0,0,454.1,357.51Z"/>
      <path class="cls-4" d="M447.54,372.81a13.29,13.29,0,0,0-4.12,4.95,29.86,29.86,0,0,0-2.3,6.07c-.16.52-.29,1-.41,1.57l-.37,1.58a27,27,0,0,0-.4,3.22c0,1.08,0,2.16,0,3.23a28.93,28.93,0,0,0,.42,3.22.12.12,0,0,0,.07.07.08.08,0,0,0,.1-.07,29.3,29.3,0,0,0,.57-3.17c.17-1,.33-2.09.45-3.13s.3-2.07.38-3.12.22-2.09.44-3.1a28.43,28.43,0,0,1,1.77-6,13.18,13.18,0,0,1,3.46-5.16v0a.07.07,0,0,0,0-.1A.08.08,0,0,0,447.54,372.81Z"/>
      <path class="cls-4" d="M428.55,384.74c-.44-5.28-1.32-10.52-2.14-15.75s-1.74-10.45-2.69-15.65-2-10.39-3.15-15.57a.08.08,0,0,0-.1-.06.1.1,0,0,0-.07.1c.91,5.21,1.73,10.43,2.5,15.66s1.54,10.46,2.2,15.71,1.15,10.5,1.81,15.73l1.93,15.74a.08.08,0,0,0,.08.07.07.07,0,0,0,.09-.07c.06-1.33.06-2.66.09-4s-.05-2.65-.07-4C429,390,428.75,387.39,428.55,384.74Z"/>
      <path class="cls-4" d="M425.38,384.67c-.28-2.1-.67-4.18-1.07-6.26l-.74-3.08c-.24-1-.47-2.06-.77-3.08a89.32,89.32,0,0,0-4-12l-.64-1.45-.7-1.43c-.45-1-1-1.87-1.51-2.79a23.49,23.49,0,0,0-3.81-5.06.08.08,0,0,0-.11,0,.08.08,0,0,0,0,.12h0a23.09,23.09,0,0,1,3.49,5.18c.46.94.95,1.86,1.34,2.83l.62,1.44.55,1.47a85,85,0,0,1,3.52,12c.49,2,.81,4.1,1.2,6.15l.49,3.1c.18,1,.4,2.06.55,3.09.33,2.07.71,4.13,1.07,6.2s.7,4.14,1.14,6.21a.08.08,0,0,0,.08.07.08.08,0,0,0,.08-.08c0-2.11,0-4.23-.15-6.34S425.6,386.77,425.38,384.67Z"/>
      <path class="cls-4" d="M421,384.94c-1-2.78-2.12-5.49-3.35-8.16a74.67,74.67,0,0,0-4.21-7.71.09.09,0,0,0-.11,0,.07.07,0,0,0,0,.11,72.84,72.84,0,0,1,3.59,8c1.07,2.7,2,5.45,2.85,8.24s1.42,5.62,2.16,8.42,1.41,5.61,2.27,8.44a.1.1,0,0,0,.08.07.08.08,0,0,0,.08-.09,41.17,41.17,0,0,0-.82-8.79A55.17,55.17,0,0,0,421,384.94Z"/>
      <path class="cls-4" d="M420.83,394.17a19.54,19.54,0,0,0-2.33-4.88,20.21,20.21,0,0,0-3.39-4.2,14.65,14.65,0,0,0-2.15-1.63,8.45,8.45,0,0,0-2.45-1.1s-.08,0-.09,0a.08.08,0,0,0,0,.11h0a12.35,12.35,0,0,1,4,3.15,19.38,19.38,0,0,1,2.83,4.28c.8,1.52,1.21,3.2,1.91,4.76.31.8.61,1.61,1,2.41a20.7,20.7,0,0,0,1.06,2.44h0a.08.08,0,0,0,.07,0s.08,0,.09-.08a20.32,20.32,0,0,0-.11-2.7C421.22,395.93,421,395.05,420.83,394.17Z"/>
      <path class="cls-16" d="M421.15,345.34A15,15,0,0,1,410.49,334c-2-9.32,4.44-5.33-1.33-20s-4.44-18-2.45-22.21,3.11-2.89,4.89,2.67,8.22,14.21,10.66,30.43S421.15,345.34,421.15,345.34Z"/>
      <path class="cls-16" d="M438.26,329.57s-5.78-2-6-12.88,4.22-8.66,4.88-22.21,1.56-23.1,4-23.32,8.89,6.66,11.11,21.76-2.89,25.1-7.33,29.54S438.26,329.57,438.26,329.57Z"/>
      <path class="cls-16" d="M418,358.45s-1.33-8-4-11.78-8.44-7.1-12.21-14.43-8-10.89-7.78-.45,4.89,15.77,10.67,19.33S418,358.45,418,358.45Z"/>
      <path class="cls-16" d="M415.6,372.22a79.78,79.78,0,0,0-13.11-17.77c-7.77-7.55-14-11.33-11.77-7.55s4.89,3.55,8.66,10.21,2.67,11.55,8,15.33S415.6,372.22,415.6,372.22Z"/>
      <path class="cls-16" d="M414.93,385.32c-.22-.66-.44-5.55-8-9.55s-14.66-2.44-13.77-.44,5.55,5.33,10.21,7.33S414.93,385.32,414.93,385.32Z"/>
      <path class="cls-16" d="M437.81,358.89s-3.33-4.22-1.55-13.1,5.77-6.67,10.21-11.33,3.56-5.33,8-10.22,8.44-7.55,10.22-5.55-.89,8.22-3.56,11.77-6.88,5.33-8.88,9.77-1.11,11.55-6.22,14.89S437.81,358.89,437.81,358.89Z"/>
      <path class="cls-16" d="M448.92,361.33s8-9.1,13.77-15.77,8-11.77,8.22-7.33,2,8-2.67,13.78S448.92,361.33,448.92,361.33Z"/>
      <path class="cls-16" d="M444.7,376s-.23-3.55,12.43-11.77,18-9.77,16.66-6.44-6.88,6.66-12.88,12.66S444.7,376,444.7,376Z"/>
      <path class="cls-3" d="M421.68,344.4s-3-15.94-6.08-27.27-5.11-18.21-5.11-18.21"/>
      <path class="cls-3" d="M437.74,329.74s5.4-17.27,7.18-27.71-.22-18.21-1.11-22.88"/>
      <path class="cls-3" d="M417.34,358.11a84.53,84.53,0,0,0-8.18-11.66c-4.89-5.77-8.66-8.88-10.89-14.44"/>
      <path class="cls-3" d="M437.81,358.89s1.78-10.66,6-16.21,12.66-14.22,16-19.77"/>
      <path class="cls-3" d="M414.41,385.08s-7.47-4.87-12.8-7.53"/>
      <polygon class="cls-5" points="438.98 432.19 423.54 432.19 415.82 393.54 446.7 393.54 438.98 432.19"/>
      <g class="cls-6">
        <circle class="cls-7" cx="376.87" cy="19.03" r="18.53"/>
        <polyline class="cls-7" points="386.18 25.81 376.87 19.03 376.87 12.28"/>
        </g>
        <g class="cls-6">
        <circle class="cls-7" cx="253.39" cy="38.32" r="17.85" transform="translate(-2.86 41.32) rotate(-9.27)"/>
        <rect class="cls-7" x="241.88" y="30.76" width="23.04" height="15.12"/>
        <polyline class="cls-7" points="241.88 30.77 253.39 38.32 264.91 30.77"/>
      </g>
      <g class="cls-6">
        <circle class="cls-7" cx="73.01" cy="68.95" r="17.85"/>
        <polygon class="cls-7" points="81.94 69.58 68.27 61.69 68.27 77.48 81.94 69.58"/>
      </g>
      <g class="cls-6">
        <circle class="cls-7" cx="148.5" cy="315.43" r="24.29" transform="translate(-199.85 329.75) rotate(-67.14)"/>
        <circle class="cls-7" cx="148.67" cy="315.43" r="8.48"/>
        <path class="cls-7" d="M169.3,319.33v-7.44h-5a16,16,0,0,0-2-4.84l3.57-3.57-5.26-5.27-3.56,3.56a16.09,16.09,0,0,0-4.75-2v-5.16H145v5.16a16.22,16.22,0,0,0-4.66,1.93L136.54,298l-5.26,5.27L135,307a16.08,16.08,0,0,0-1.93,4.57h-5.39V319H133a16,16,0,0,0,1.83,4.61l-3.79,3.8,5.26,5.26L140,329a16.34,16.34,0,0,0,4.62,2v5.26H152v-5.08a16.22,16.22,0,0,0,4.79-1.88l3.62,3.62,5.26-5.26-3.51-3.52a16.12,16.12,0,0,0,2.06-4.79Z"/>
      </g>
      <g class="cls-6">
        <circle class="cls-7" cx="447.03" cy="156.06" r="24.29" transform="translate(20.58 361.81) rotate(-45)"/>
        <path class="cls-7" d="M456.73,144.09H435.54a4.56,4.56,0,0,0-4.56,4.56v11.64a4.56,4.56,0,0,0,4.56,4.56h14.67l-1.15,8.43,7.09-8.43h.58a4.56,4.56,0,0,0,4.55-4.56V148.65A4.56,4.56,0,0,0,456.73,144.09Z"/>
        <line class="cls-7" x1="437.3" y1="151.25" x2="455.82" y2="151.25"/>
        <line class="cls-7" x1="437.3" y1="157.01" x2="455.82" y2="157.01"/>
      </g>
      <path class="cls-8" d="M367,166.87v-31.5h-2.85V95a24.85,24.85,0,0,0-24.85-24.85H205.77A24.86,24.86,0,0,0,180.91,95V412.48a24.85,24.85,0,0,0,24.86,24.85H339.29a24.84,24.84,0,0,0,24.85-24.85V193.71H367V175.1h-2.85v-8.23Z"/>
      <path class="cls-9" d="M334.93,433.91H210.13a26.33,26.33,0,0,1-26.34-26.33V100c0-14.55,7.46-26.34,26.34-26.34h124.8c17.31-.24,26.34,11.79,26.34,26.34V407.58A26.33,26.33,0,0,1,334.93,433.91Z"/>
      <path class="cls-10" d="M282.19,77.66l-.05.19c-1.46,5.43-4.82,9-8.54,9h-2.14c-3.72,0-7.08-3.53-8.54-9l-.05-.19-52.08-.18a21.92,21.92,0,0,0-22,21.91l-.07,304.94c0,14.21,11.12,25.73,24.85,25.73h117.9c13.72,0,24.85-11.52,24.85-25.73l0-307.13a19,19,0,0,0-18.78-19Z"/>
      <path class="cls-11" d="M274.35,77.06A2.34,2.34,0,1,0,272,79.39,2.33,2.33,0,0,0,274.35,77.06Z"/>
      <circle class="cls-12" cx="215.69" cy="152.99" r="10.78"/>
      <circle class="cls-13" cx="254.7" cy="152.99" r="10.78"/>
      <circle class="cls-13" cx="293.72" cy="152.99" r="10.78"/>
      <line class="cls-3" x1="233.01" y1="122.49" x2="315.41" y2="122.49"/>
      <circle class="cls-13" cx="332.73" cy="152.99" r="10.78"/>
      <circle class="cls-13" cx="215.69" cy="201.76" r="10.78" transform="translate(-28.71 35.94) rotate(-8.93)"/>
      <circle class="cls-13" cx="254.7" cy="201.76" r="10.78" transform="translate(-39.69 64.24) rotate(-13.35)"/>
      <circle class="cls-13" cx="293.72" cy="201.76" r="10.78" transform="translate(-28.61 49.83) rotate(-9.25)"/>
      <circle class="cls-12" cx="332.73" cy="201.76" r="10.78" transform="translate(-27.46 54.53) rotate(-9)"/>
      <circle class="cls-13" cx="215.69" cy="250.53" r="10.78"/>
      <circle class="cls-13" cx="254.7" cy="250.53" r="10.78"/>
      <circle class="cls-13" cx="293.72" cy="250.53" r="10.78"/>
      <circle class="cls-13" cx="332.73" cy="250.53" r="10.78"/>
      <circle class="cls-13" cx="215.69" cy="299.3" r="10.78"/>
      <circle class="cls-13" cx="254.7" cy="299.3" r="10.78"/>
      <circle class="cls-13" cx="293.72" cy="299.3" r="10.78"/>
      <circle class="cls-12" cx="332.73" cy="299.3" r="10.78"/>
      <path class="cls-13" d="M333,408.06H213.89a8,8,0,0,1-7.95-8h0a8,8,0,0,1,7.95-8H333a8,8,0,0,1,7.95,8h0A8,8,0,0,1,333,408.06Z"/>
      <path class="cls-4" d="M205.25,83c0,2.36-2.65,3.21-2.66,5v.12h2.57v.79h-3.43v-.67c0-2.53,2.65-3,2.65-5.22,0-.81-.27-1.23-.92-1.23s-.92.45-.92,1.15v.69h-.81V83c0-1.19.54-2,1.75-2S205.25,81.81,205.25,83Z"/>
      <path class="cls-4" d="M209.54,83v.2a1.55,1.55,0,0,1-.95,1.61,1.58,1.58,0,0,1,.95,1.63V87c0,1.2-.56,2-1.77,2S206,88.23,206,87v-.54h.82v.6c0,.7.29,1.13.92,1.13s.91-.42.91-1.21V86.4c0-.77-.32-1.14-1-1.16h-.47v-.78h.51c.59,0,.94-.39.94-1.08V83c0-.81-.28-1.22-.91-1.22s-.92.43-.92,1.14v.4H206V83c0-1.19.56-2,1.76-2S209.54,81.8,209.54,83Z"/>
      <path class="cls-4" d="M211.23,83.59v1.08h-.84V83.59Zm0,4.26v1.08h-.84V87.85Z"/>
      <path class="cls-4" d="M213,84.29a1.26,1.26,0,0,1,1.17-.65c1,0,1.45.74,1.45,1.86V87c0,1.2-.57,2-1.76,2s-1.76-.78-1.76-2v-.52h.82v.58c0,.7.29,1.13.91,1.13s.92-.43.92-1.13V85.57c0-.71-.29-1.13-.92-1.13a.84.84,0,0,0-.88.83v.18h-.82l.22-4.35h3.08v.78h-2.3Z"/>
      <path class="cls-4" d="M220,83v.15h-.82v-.2c0-.71-.29-1.12-.93-1.12s-.95.42-.95,1.26v1.76a1.26,1.26,0,0,1,1.26-.84c1,0,1.46.73,1.46,1.86V87c0,1.2-.59,2-1.79,2s-1.8-.78-1.8-2V83c0-1.24.56-2,1.8-2S220,81.78,220,83Zm-2.7,2.93v1.18c0,.7.29,1.13.93,1.13s.93-.43.93-1.13V85.91c0-.7-.3-1.13-.93-1.13S217.27,85.21,217.27,85.91Z"/>
      <rect class="cls-4" x="303.26" y="83.33" width="2.21" height="5.53"/>
      <rect class="cls-4" x="306.21" y="82.22" width="2.21" height="6.64"/>
      <rect class="cls-4" x="309.16" y="81.43" width="2.21" height="7.42"/>
      <rect class="cls-4" x="312.1" y="80.06" width="2.21" height="8.79"/>
      <path class="cls-4" d="M341.68,88.7H328.41V80.59h13.27ZM329.15,88h11.79V81.33H329.15Z"/>
      <rect class="cls-4" x="330.26" y="82.13" width="7" height="5.03"/>
      <rect class="cls-4" x="341.22" y="83.69" width="1.67" height="1.91"/>
      <path class="cls-4" d="M323.55,86.94a.48.48,0,0,1-.26-.07c-2.7-1.61-4.48-.12-4.55-.05a.5.5,0,0,1-.66-.75c.1-.08,2.38-2,5.72,0a.5.5,0,0,1-.25.92Z"/>
      <path class="cls-4" d="M324.55,85.27a.48.48,0,0,1-.26-.07c-3.9-2.32-6.52-.07-6.55,0a.5.5,0,0,1-.66-.74s3.2-2.74,7.72-.06A.49.49,0,0,1,325,85,.47.47,0,0,1,324.55,85.27Z"/>
      <path class="cls-4" d="M325.45,83.34a.47.47,0,0,1-.25-.07c-4.94-2.94-8.23-.17-8.37,0a.49.49,0,0,1-.7,0,.48.48,0,0,1,.05-.69s3.94-3.38,9.53-.06a.5.5,0,0,1,.17.68A.49.49,0,0,1,325.45,83.34Z"/>
      <path class="cls-4" d="M322.06,87.77a1.25,1.25,0,1,1-1.25-1.24A1.24,1.24,0,0,1,322.06,87.77Z"/>
      <path class="cls-1" d="M56.62,422a34.57,34.57,0,0,1-3.2,4.41c-1.22,1.22-4.88,3.81-6.25,5s-1.21,2.13-.61,3,24.68,0,24.68,0,.91.61.91-3a12.39,12.39,0,0,0-1.37-5.94S58.29,421.87,56.62,422Z"/>
      <path class="cls-1" d="M46.15,433a2.05,2.05,0,0,0,.41,1.52c.61.92,24.68,0,24.68,0s.62.41.84-1.52Z"/>
      <path class="cls-1" d="M103.8,422a34.43,34.43,0,0,0,3.3,4.41c1.26,1.22,5,3.81,6.45,5s1.25,2.13.63,3-25.47,0-25.47,0-.95.61-.95-3a12.05,12.05,0,0,1,1.42-5.94S102.07,421.87,103.8,422Z"/>
      <path class="cls-1" d="M114.6,433a2,2,0,0,1-.42,1.52c-.63.92-25.47,0-25.47,0s-.65.41-.87-1.52Z"/>
      <path class="cls-5" d="M53.67,302.21s2,82.05,2.34,86.31,1.82,16.6,1.82,16.6-.45,4.87-.76,6.4,1.07,5.94,1.07,5.94a13.67,13.67,0,0,0-1.22,2.59c-.15.76-.3,2-.3,2a62.71,62.71,0,0,1,8.22,2.28,15.78,15.78,0,0,0,5.94,1.22s.61-4,1.37-6.7,1.67-6.25,1.52-9.14-1.83-8.07-1.67-9.59,2.13-5.18,2.13-7.77-.31-8.22-.31-8.22l7.87-63.47,5.38,85.55S84.48,415.48,86,417a35.4,35.4,0,0,1,2.59,2.89,22.56,22.56,0,0,0-.77,3.35c0,.77.16,1.22.16,1.83a11.84,11.84,0,0,0,.15,1.52S92,425.07,95.3,424a43.51,43.51,0,0,1,8.53-1.38s.15-4.41.15-6.09,1.37-4.41,1.06-6.09-1.52-4.72-1.82-5.94a24.28,24.28,0,0,1-.31-4.41c0-.61,2.84-89.21,2.84-89.21s-1.52-11.88-1.52-12.33-1.68-5.49-1.68-5.49l-48.73,6.4Z"/>
      <path class="cls-15" d="M71.54,413.19s-16.3,2.44-11.88,3.66,9.6,1.37,9.29.3-2.44-1.06-2.44-1.06"/>
      <path class="cls-15" d="M102,413s-11.88,7-9.9,6.7,7.16-1.37,8.07-2.59"/>
      <polygon class="cls-16" points="69.51 217.69 61.13 223.48 68.59 299.62 96.62 295.66 87.02 216.32 69.51 217.69"/>
      <path class="cls-14" d="M64.63,206.72l2.14,18.89s2.89,3.65,10,2.59,8.07-6.09,8.07-6.09l-1.52-17.52s-1.68,1.83-7.16,3.2S64.63,206.72,64.63,206.72Z"/>
      <path class="cls-14" d="M61.44,174.29s-4.27,2.89-5.64,6.55-.61,5-.15,7,3.2,7,3.2,7,2.74,8.37,3.65,10.35,7.46,6.4,9.75,7.92c0,0,3.2.61,4.57.15s4.57-2.28,5.48-4.87,2.28-5,2.44-7.61-.16-10.51-.16-10.51,3.36-7,2-10.05-3.8-8.08-11.26-9.29S62.81,172,61.44,174.29Z"/>
      <path class="cls-5" d="M86.56,180.23c-1.37-3-3.8-8.08-11.26-9.29S62.81,172,61.44,174.29c0,0-4.27,2.89-5.64,6.55s-.61,5-.15,7,3.2,7,3.2,7l.58,1.77.18-.1s-1.07-7.46-.76-9,3-3.51,3.65-5a18.9,18.9,0,0,0,.76-2.13s3.51,5.33,9.75,5.33,9.14-.31,9.14-.31l1.52,3,.91,1.83S87.94,183.27,86.56,180.23Z"/>
      <polyline class="cls-3" points="74.23 191.34 76.06 200.48 72.4 201.24"/>
      <path class="cls-3" d="M70.27,203.53S75,205.81,78.19,202"/>
      <path class="cls-4" d="M67.49,193.06c.25.89,0,1.73-.5,1.88s-1.15-.46-1.4-1.35,0-1.73.5-1.88S67.24,192.16,67.49,193.06Z"/>
      <ellipse class="cls-4" cx="78.65" cy="191.8" rx="0.99" ry="1.68" transform="translate(-48.96 28.43) rotate(-15.7)"/>
      <path class="cls-3" d="M62.66,190.89a7.78,7.78,0,0,1,6.09-1.53"/>
      <path class="cls-3" d="M75.6,188.91s4.11-1.68,5.94-.46"/>
      <path class="cls-3" d="M59.43,196.62s-2.41-1.77-2.71.81.76,3.81,2.13,4.27,2.74,1.07,2.74,1.07Z"/>
      <path class="cls-3" d="M84.89,193s2.13-2.59,2.44.46S85,199.57,85,199.57Z"/>
      <path class="cls-14" d="M35.09,252.87s-1.37-7.77-2.28-10.51S28.39,238.25,27,237s-1.83-4.42-3.35-4-1.07,2.44-.46,3.81a21.35,21.35,0,0,0,2,3.2s-3.35-1.83-5.48-2.75a17.61,17.61,0,0,1-4.26-2.58c-.77-.61-.31,3.19.3,5.48s2.13,6.24,5.33,7.92S26.71,251,26.71,251l2.14,4.42Z"/>
      <path class="cls-14" d="M29.15,248s-1.22-3.81-3.2-4.73-2.59,0-3.8-1.67-2.29-5.48-3.51-7.16-1.82.46-1.37,2.44,2.13,7.46,2.44,8.68,2.74,2.28,3.81,3"/>
      <path class="cls-10" d="M64.48,214a25.78,25.78,0,0,1,2.74,5.33,21.42,21.42,0,0,1,1.53,5.79,7.13,7.13,0,0,1,.15,2.74,27.6,27.6,0,0,0-.31,4.72c.16,1.53,4.57,72.8,4.57,74.32s.46,5.18-.15,5.48,1.68,1.22-8.38-.61a68.21,68.21,0,0,1-16.29-4.87V283.48s-2.59,2-7.46.46c-7.23-2.26-8.53-8.84-11.27-16.76s-4.42-11.72-4.42-11.72l9.9-5L38.9,257S43,240.53,43,238.25s-.61-5.64-.3-6.4,19-12,19-12S63.11,213.73,64.48,214Z"/>
      <path class="cls-3" d="M49.64,248.94c-.31-3.3-.54-5.51-.54-5.51"/>
      <path class="cls-3" d="M48.34,283.48s3,.46,3.2-7.16c.09-4.8-.9-16.61-1.65-24.69"/>
      <line class="cls-3" x1="46.99" y1="265.33" x2="48.49" y2="266.88"/>
      <line class="cls-3" x1="38.9" y1="256.98" x2="45.79" y2="264.1"/>
      <line class="cls-3" x1="43.16" y1="261.55" x2="48.49" y2="263.99"/>
      <polygon class="cls-10" points="52.45 294.44 52.91 298.1 65.85 291.4 65.4 286.98 52.45 294.44"/>
      <path class="cls-14" d="M138.65,243l3.65-3.35s2.59-4.72,3.51-6.55,3.19-.3,4.87-1.22,4.26-3.2,4.72-2.13a2,2,0,0,1-.76,2.44,24.51,24.51,0,0,1-2.59,1.37,51.5,51.5,0,0,0,5-1.53c.92-.45,5.64-3.5,5.64-1.52s-3.05,5.94-5,7.92-5,4.72-8.37,5.79-4.11,1.37-4.11,1.37l-3.2,3.5Z"/>
      <path class="cls-14" d="M144.43,243.43s1.68-4.72,3.36-5.33,6.39-.77,6.39-.77,2.89-4.72,4.72-6.24,1.83.61,1.07,2.29a31.62,31.62,0,0,1-3.81,5.78,23.91,23.91,0,0,1-2.13,2.13"/>
      <path class="cls-3" d="M152.05,233.53s-2.59.15-3.35.91"/>
      <path class="cls-10" d="M84,214.34s4.11,32.89,4.11,39,2.59,58.17,2.59,58.17a25.33,25.33,0,0,0,12.94-1.83c7.16-2.89,8.22-5.18,8.38-6.39s-3-31.53-3-31.53,2.59,1.53,7.92-.3,27.56-18.58,27.56-18.58l-5.78-9.9-19.34,8.22s-5.49-14.46-7.92-19.19-1.83-6.54-3.35-8.07-18.13-5-18.13-5-2.89-5.79-3.8-7S83.82,211,84,214.34Z"/>
      <line class="cls-3" x1="106.15" y1="246.92" x2="105.6" y2="242.06"/>
      <line class="cls-3" x1="108.95" y1="271.75" x2="106.56" y2="250.6"/>
      <path class="cls-3" d="M116,255.64a7.5,7.5,0,0,0-1,2.56"/>
      <path class="cls-3" d="M119.31,251.19a34.36,34.36,0,0,0-2.4,3.08"/>
      <polygon class="cls-10" points="96.31 284.39 96.01 287.44 107.28 292.16 107.58 289.11 96.31 284.39"/>
    </g>
  </g>
</svg>