<svg xmlns="http://www.w3.org/2000/svg" viewBox="0 0 786.2 536.63">
  <defs>
    <style>
      .cls-c1{fill:#e0e7ff;}.cls-c2{fill:#818df8;}.cls-c3{fill:#3e3d51;}.cls-c4{fill:#333343;}.cls-c5{fill:#ff7685;}.cls-c6{fill:#fbf3ff;}.cls-c7{fill:#f6a390;}.cls-c8{fill:#f47458;}.cls-c9{fill:#f48c7f;}.cls-c10{fill:#f7a491;}.cls-c11{fill:#4042e2;}.cls-c12{fill:#d6d6ed;}.cls-c13{fill:#efefef;}
    </style>
  </defs>
  <g id="Capa_2" data-name="Capa 2">
    <g id="Layer_1" data-name="Layer 1">
      <path class="cls-c1" d="M638.19,56C555.81,75.8,487.71,8.66,408.07,4.81,368.22,2.89,324.79,12,290.69,33.2,266.29,48.39,247.4,77.91,251,107.38a67.58,67.58,0,0,0,21.88,41.47c5.93,5.34,13.05,8.7,18.93,14q11.69,10.56,23.28,21.22a48.88,48.88,0,0,1,.81,71c-18,17.5-32,39.9-18,60.52,28.66,42.12,45.53,46.17,48,67.88,1,8.69,1.69,1.68,1.69,1.68l23-48.77s114.54-15,154.73-49.34c28.65-24.5,40.24-64.22,66.6-90.94,16.52-16.74,37.85-19.36,59.82-26.16q40.95-12.69,81-28c15.42-5.88,31.09-12.27,43.27-23.4,17.11-15.62,13-61.61-15.65-74.09C727.51,30.21,672.67,47.64,638.19,56Z"/>
      <polygon class="cls-c2" points="185 532.06 177.2 532.06 175.09 511.45 187.1 511.45 185 532.06"/>
      <polygon class="cls-c2" points="142.41 532.06 134.61 532.06 132.51 511.45 144.52 511.45 142.41 532.06"/>
      <polygon class="cls-c3" points="219.63 532.06 211.83 532.06 209.72 511.45 221.73 511.45 219.63 532.06"/>
      <rect class="cls-c4" x="177.84" y="226.47" width="1.43" height="70.94"/>
      <rect class="cls-c4" x="167.04" y="236.6" width="3.48" height="136.73"/>
      <path class="cls-c4" d="M194.64,374.92c-12.36,0-22.38-2.68-22.38-6a2.41,2.41,0,0,1,1-1.76l-.11,0h-9a2.44,2.44,0,0,1,1,1.78c0,4.24-14,6-22.66,6h0v1.3h52.73v-1.3h-.54Z"/>
      <path class="cls-c4" d="M155.72,232.57h28.57a0,0,0,0,1,0,0v.94a4.16,4.16,0,0,1-4.16,4.16H159.88a4.16,4.16,0,0,1-4.16-4.16v-.94A0,0,0,0,1,155.72,232.57Z"/>
      <path class="cls-c5" d="M211,229c0,1.16-4.85,2.2-12.66,2.93-26.14,2.47-69.95.67-69.95-2.93,0-.14,27-49.85,27-49.85H184S211,228.84,211,229Z"/>
      <path class="cls-c4" d="M181,298.16a2.43,2.43,0,1,1-2.42-2.22A2.32,2.32,0,0,1,181,298.16Z"/>
      <rect class="cls-c2" x="93.28" y="376.21" width="133.84" height="135.72"/>
      <rect class="cls-c3" x="188.3" y="376.21" width="38.81" height="135.72"/>
      <rect class="cls-c3" x="97.05" y="420.67" width="91.37" height="2.34"/>
      <rect class="cls-c3" x="97.05" y="458.22" width="91.37" height="2.34"/>
      <path class="cls-c4" d="M464.42,532.06l-2.3-74.82a6.28,6.28,0,0,0-4.11-5.71,6.39,6.39,0,0,0-2.17-.38h-.2a6.28,6.28,0,0,0-6.09,6.48c0,.13,0,.3,0,.44l7.55,74Z"/>
      <path class="cls-c4" d="M511.55,532.37l2.31-74.82a6.25,6.25,0,0,1,4.11-5.7,6.13,6.13,0,0,1,2.17-.39h.2a6.3,6.3,0,0,1,6.09,6.48l0,.45-7.55,74Z"/>
      <path class="cls-c5" d="M524.92,464.43h-77a10,10,0,0,1-10-10h0a12.35,12.35,0,0,1,12.36-12.35h72.33a12.35,12.35,0,0,1,12.35,12.35h0A10,10,0,0,1,524.92,464.43Z"/>
      <path class="cls-c3" d="M603.08,532.06H29.14a2.33,2.33,0,0,0-2.36,2.13,2.28,2.28,0,0,0,2.28,2.44h574a2.28,2.28,0,0,0,2.28-2.28h0A2.28,2.28,0,0,0,603.08,532.06Z"/>
      <polygon class="cls-c6" points="328.25 122.36 329.71 134.06 316.94 134.82 316.67 130.35 324.67 129.87 323.8 122.92 328.25 122.36"/>
      <path class="cls-c5" d="M573,532.06a2.31,2.31,0,0,0-2.2-2H530.5a2.32,2.32,0,0,0-2.21,2Z"/>
      <path class="cls-c5" d="M542.63,530.08l-12.32,0s2.42-4.83,6.75-7.17,11.8-2.29,11.8-2.29Z"/>
      <path class="cls-c3" d="M551.38,530.11s.83-9.24-2.36-9.52-6.39,9.49-6.39,9.49Z"/>
      <path class="cls-c5" d="M601.28,532.05c-.14-4.74-4.38-8.55-9.59-8.55s-9.44,3.81-9.59,8.55Z"/>
      <path class="cls-c5" d="M602.47,532.07c-.09-1.14-.54-2-1.08-2H581.55c-.54,0-1,.86-1.09,2Z"/>
      <path class="cls-c4" d="M245.07,268c9.08-1.29,17.53,2.11,23.91,8.69,14.61,15.07,3.34,24.72,8.15,44.45a21.07,21.07,0,0,1-10.35,6.5c-20.46,5.71-43.43,2.5-58.9-13l-.24-.22C212,303.18,219.28,287.7,222.26,284,228,276.81,233.85,269.62,245.07,268Z"/>
      <path class="cls-c7" d="M246.64,309.71s-.09.47-.25,1.26c-.77,3.79-3.16,15.08-5.15,18.53-2.41,4.18,5.44,23,15.7,21.36,3.05-.49-1.74-10.11-.7-14.77.58-2.63,2.35-10.84,3.78-17.47,1.09-5.09,2-9.26,2-9.26Z"/>
      <path class="cls-c8" d="M246.39,311c-.07.36-.16.79-.26,1.28a17.8,17.8,0,0,0,4.35,5,14.11,14.11,0,0,0,9.07,3.48c.16-.72.31-1.45.47-2.15,1.09-5.09,2-9.26,2-9.26l-15.37.35S246.55,310.18,246.39,311Z"/>
      <path class="cls-c7" d="M257.26,276.17a18.59,18.59,0,0,0-10.81,6.19c-4.54,5.39-9.44,22.05,1.84,31.11s22.43-1.19,24.08-12.07S273.69,275.78,257.26,276.17Z"/>
      <path class="cls-c7" d="M274.11,301.28c-1.34,2.4-3.61,3.73-5.05,3s-1.51-3.32-.17-5.72,3.61-3.73,5.05-3S275.46,298.87,274.11,301.28Z"/>
      <path class="cls-c4" d="M259.17,275.92s-9.68,15.85-16.6,16.58-7.84,9.15-7.84,9.15,2.48-19.4,9.33-23.14S259.17,275.92,259.17,275.92Z"/>
      <path class="cls-c7" d="M244.83,296.27c.56,2.82-.57,5.4-2.53,5.77s-4-1.61-4.57-4.43.57-5.39,2.53-5.76S244.27,293.46,244.83,296.27Z"/>
      <path class="cls-c5" d="M186.31,342.68l1.9-1c11.26-5.75,24.88-1,30.48,10.65l41.44,86.13a23.47,23.47,0,0,0,27.64,12.73l75.72-21.92c10.22-2.95,20.79,3.36,23.45,14h0L262.11,485.77Z"/>
      <path class="cls-c9" d="M478.17,429.38s61.3-3.59,63.7.2-21,9.2-23.16,10.59c-18.8,11.8-17.1,4.53-21.29,3.53s-15.66-1.54-15.66-1.54Z"/>
      <path class="cls-c3" d="M268.08,454.71s2.22,4.12,4.32,5.14c7.73,3.74,22.71-1.94,22.71-1.94l94.21-21.76,99.85,6.63s3.41-12.21,1.75-17.2l-91.45-19.26L294.49,417Z"/>
      <path class="cls-c5" d="M386.94,445h0c-.37-2.84-.87-5.66-2.6-7.74-4.61-5.5-13.34-7.75-20.72-5.69l-90.05,27.78a2.51,2.51,0,0,1-2.29-.43c-.89-.7-2.07-1.57-2.24-1.4-4,3.82-6.35,28-6.35,28l.12.22Z"/>
      <path class="cls-c10" d="M466.38,431.62s9.27,3.73,17,7.64c3.33,1.68,7.09,5.19,8.5,5.54,6.67,1.63,8.15-2.28,10.84-6.32,1.7-2.55,9.06-9.66,13.84-14.51,2.81-2.84,4.65-6.86,3.4-8.19-3.74-4-12.94,6.36-20.59,9-4.06,1.4-8.45.17-12.77-.85-5.12-1.2-11.82-5.14-11.82-5.14Z"/>
      <path class="cls-c11" d="M256.82,495.5a8.54,8.54,0,0,1-7.61-4.67L178.56,353.3a8.69,8.69,0,0,1,3.65-11.67,8.52,8.52,0,0,1,11.55,3.69l70.65,137.53a8.7,8.7,0,0,1-3.65,11.67A8.48,8.48,0,0,1,256.82,495.5Z"/>
      <path class="cls-c11" d="M394,446.67a9,9,0,0,0-11.14-6.08L253.57,478.51l7.15,16.62,127.14-37.31A9,9,0,0,0,394,446.67Z"/>
      <path class="cls-c11" d="M245.9,532.06l17.49-42.75c.09-.23.18-.47.25-.71A8,8,0,1,0,248.4,484L234,531.57a4.37,4.37,0,0,0-.12.49Z"/>
      <path class="cls-c4" d="M297.44,416.47s63.61-36.19,88.8-39.31c9.57-1.18,100.24,45.61,100.24,45.61L477,439.15s-55.23-14-72.16-20.93c-4.87-2-18.17-10.55-18.17-10.55Z"/>
      <path class="cls-c9" d="M255.1,338.34s55.22,40.67,60.6,41.37c4.05.53,44.69-11.89,44.69-11.89L352.76,383s-33.33,18.74-45.25,18.24c-14-.59-46.8-28.28-46.8-28.28Z"/>
      <path class="cls-c12" d="M300,371.56s-12.93,18.61-13.24,23.6l-27.16-20.48-4.52-36.34Z"/>
      <path class="cls-c6" d="M226.55,328a96.61,96.61,0,0,0-4,40.51c2.69,22.17,45.49,90.05,45.49,90.05A28.76,28.76,0,0,0,284,449.12c2.88-3.39,13.48-32.65,13.48-32.65S284,403.3,282.76,394.61a235.71,235.71,0,0,0-6.11-31.46C273.06,349.67,239.43,322.05,226.55,328Z"/>
      <path class="cls-c11" d="M226.63,431.74l120.26-7.25,9.2,12.82c1.33,61.9,1.6,85.84,1.66,94.76h11.68c.64-10,2-34.86,4.57-96.91,0,0-18.53-18.38-23.21-21.87L226,413.78a9,9,0,1,0,.61,18Z"/>
      <path class="cls-c7" d="M270,361.79l-19.59,29.28s-3-19.69-5.34-40.88a69.4,69.4,0,0,0-25.11,8.08c3.81,20.62,16.18,55.12,27.45,59.28,8.77,3.23,25.09-39.8,25.09-39.8Z"/>
      <path class="cls-c12" d="M245.2,343c-1.35-6.51-2.93-13-10-15.1a14.19,14.19,0,0,0-12.74,2.8c-4.15,3.39-5.3,8.84-5.28,14,0,11.71,3.65,23.14,7.24,34.52,7.91-4.4,15.15-3,24.25-4.27C249.55,364.48,247,351.43,245.2,343Z"/>
      <path class="cls-c11" d="M282,374h3.3l-.42-3.52H282c-1.37,0-2.48-1.57-2.48-3.51v-3.52c0-1.94,1.11-3.51,2.48-3.51h3.71v-3.52H282c-2.73,0-5,3.15-5,7v3.52C277,370.81,279.25,374,282,374Z"/>
      <path class="cls-c11" d="M304.7,355.86v16.76a7,7,0,0,1-7,7h-6a7,7,0,0,1-7-7V353.73H304.7Z"/>
      <path class="cls-c7" d="M279.25,356.3c1.68,0,5.46,2.17,5.92,4s-.51,4-.42,5.27a13.56,13.56,0,0,1-.06,4.57c-.12.42-2.31,2.86-2.58,3.77s-9.89,4.45-9.89,4.45l-2.37-16.49S272.06,356.48,279.25,356.3Z"/>
      <path class="cls-c2" d="M374,339.63,346.25,402.1a2.49,2.49,0,0,1-3.29,1.26h0a2.5,2.5,0,0,1-1.27-3.29l27.73-62.46a2.48,2.48,0,0,1,3.28-1.27h0A2.49,2.49,0,0,1,374,339.63Z"/>
      <polygon class="cls-c11" points="368.97 338.62 371.04 339.56 344.25 401.16 341.69 400.07 368.97 338.62"/>
      <path class="cls-c9" d="M365,367.11s.23-5.84-2.06-4.32-1.94,5-2.51,5.73a7.63,7.63,0,0,0-2.28,4.21c-.34,2.34-1.94,4-2.17,5.5a13.37,13.37,0,0,0-.12,2.81s7.43-.94,7.66-4.1S365,367.11,365,367.11Z"/>
      <path class="cls-c5" d="M25.45,439a2.57,2.57,0,1,0,2.84-2.25A2.56,2.56,0,0,0,25.45,439Z"/>
      <path class="cls-c5" d="M29.27,440.66a1.66,1.66,0,1,1-1.2-2.55,1.66,1.66,0,0,1,1.2,2.55Z"/>
      <path class="cls-c5" d="M12.58,442.83A2.57,2.57,0,1,1,9,442.52,2.56,2.56,0,0,1,12.58,442.83Z"/>
      <path class="cls-c5" d="M12.07,446.1a1.66,1.66,0,0,1-2.46-2.17,1.59,1.59,0,0,1,.32-.36,1.63,1.63,0,0,1,1.21-.39A1.66,1.66,0,0,1,12.07,446.1Z"/>
      <path class="cls-c5" d="M24.16,438.88a2.57,2.57,0,1,1-2.58-2.56A2.58,2.58,0,0,1,24.16,438.88Z"/>
      <path class="cls-c5" d="M21.66,441.06a1.66,1.66,0,1,1,1.65-1.67A1.65,1.65,0,0,1,21.66,441.06Z"/>
      <path class="cls-c5" d="M35.56,443.3a2.57,2.57,0,1,1-.33-3.62A2.58,2.58,0,0,1,35.56,443.3Z"/>
      <path class="cls-c5" d="M34.58,443.15A1.66,1.66,0,0,1,32,441a1.67,1.67,0,0,1,2.34-.21A1.65,1.65,0,0,1,34.58,443.15Z"/>
      <path class="cls-c5" d="M16.15,472.91a2.57,2.57,0,1,0-3.44,1.15A2.56,2.56,0,0,0,16.15,472.91Z"/>
      <path class="cls-c5" d="M15.53,472.25a1.66,1.66,0,1,1-.64-2.4,1.67,1.67,0,0,1,.64,2.4Z"/>
      <path class="cls-c5" d="M7.55,464.22a2.56,2.56,0,1,0-3.37-1.34A2.57,2.57,0,0,0,7.55,464.22Z"/>
      <path class="cls-c5" d="M8.41,462.63a1.66,1.66,0,1,1-2-2.43,1.66,1.66,0,0,1,2,2.43Z"/>
      <path class="cls-c5" d="M6.55,452a2.57,2.57,0,1,0-1.72-3.2A2.57,2.57,0,0,0,6.55,452Z"/>
      <path class="cls-c5" d="M6.3,450.57a1.63,1.63,0,0,1-.13-1.26A1.66,1.66,0,0,1,9.22,449a1.7,1.7,0,0,1,.13,1.27A1.66,1.66,0,0,1,6.3,450.57Z"/>
      <path class="cls-c5" d="M8.13,465.38a2.56,2.56,0,1,1-.92,3.51A2.56,2.56,0,0,1,8.13,465.38Z"/>
      <path class="cls-c5" d="M9.41,468.89a1.66,1.66,0,1,1,1.86-2.44A1.66,1.66,0,0,1,9.41,468.89Z"/>
      <path class="cls-c5" d="M13.62,442.06a2.56,2.56,0,1,0,.73-3.56A2.56,2.56,0,0,0,13.62,442.06Z"/>
      <path class="cls-c5" d="M16.9,442.49a1.63,1.63,0,1,1,.48-.47A1.66,1.66,0,0,1,16.9,442.49Z"/>
      <path class="cls-c5" d="M6.25,453.29a2.57,2.57,0,1,1-3,2.1A2.58,2.58,0,0,1,6.25,453.29Z"/>
      <path class="cls-c5" d="M6.05,457.48a1.66,1.66,0,0,1,.56-3.27A1.68,1.68,0,0,1,8,456.13,1.66,1.66,0,0,1,6.05,457.48Z"/>
      <path class="cls-c5" d="M24.46,455.2l3.13-13.45-.47-.1-3.27,14-1.66-14.29-.48.05,1.6,13.72-6.25-12.32-.44.22,6.52,12.84L12.68,446l-.34.35,10,9.49-12.7-5.42-.19.45,13.24,5.64-14.37-.84,0,.48,13.79.81L8.9,461l.14.46,13.77-4.18-11.54,8.58.29.39L22.64,458,15.1,469.55l.4.27,17-25.88-.41-.27Z"/>
      <rect class="cls-c5" x="48.86" y="441.29" width="2.07" height="64.85" transform="translate(-373.68 255.82) rotate(-56.77)"/>
      <path class="cls-c5" d="M51.56,373.36a4.35,4.35,0,1,0,6.06-1A4.34,4.34,0,0,0,51.56,373.36Z"/>
      <path class="cls-c5" d="M55.81,379a2.81,2.81,0,1,1,.33-4.77,2.81,2.81,0,0,1-.33,4.77Z"/>
      <path class="cls-c5" d="M29.34,368.55a4.35,4.35,0,1,1-5.11-3.42A4.35,4.35,0,0,1,29.34,368.55Z"/>
      <path class="cls-c5" d="M25.89,373a2.8,2.8,0,0,1-3.3-2.2,2.84,2.84,0,0,1,1.44-3,3.35,3.35,0,0,1,.77-.27A2.81,2.81,0,0,1,25.89,373Z"/>
      <path class="cls-c5" d="M49.71,372.2A4.35,4.35,0,1,1,48,366.3,4.34,4.34,0,0,1,49.71,372.2Z"/>
      <path class="cls-c5" d="M44.22,373.37A2.81,2.81,0,1,1,48,372.26,2.81,2.81,0,0,1,44.22,373.37Z"/>
      <path class="cls-c5" d="M63,388.09a4.34,4.34,0,1,1,2.48-5.63A4.36,4.36,0,0,1,63,388.09Z"/>
      <path class="cls-c5" d="M61.65,387.06a2.81,2.81,0,1,1,1.6-3.63A2.82,2.82,0,0,1,61.65,387.06Z"/>
      <path class="cls-c5" d="M9.94,416a4.35,4.35,0,1,0-6-1.14A4.35,4.35,0,0,0,9.94,416Z"/>
      <path class="cls-c5" d="M9.57,414.52a2.81,2.81,0,1,1,1-4.07,2.81,2.81,0,0,1-1,4.07Z"/>
      <path class="cls-c5" d="M4.34,396.1a4.34,4.34,0,1,0-3.9-4.75A4.35,4.35,0,0,0,4.34,396.1Z"/>
      <path class="cls-c5" d="M6.92,394.45a2.81,2.81,0,1,1-1-5.28,2.81,2.81,0,0,1,1,5.28Z"/>
      <path class="cls-c5" d="M12.85,377.23a4.34,4.34,0,1,0,.07-6.14A4.33,4.33,0,0,0,12.85,377.23Z"/>
      <path class="cls-c5" d="M13.68,374.86a2.74,2.74,0,0,1,.84-2,2.81,2.81,0,1,1-.84,2Z"/>
      <path class="cls-c5" d="M4.25,398.29A4.34,4.34,0,1,1,0,402.72,4.35,4.35,0,0,1,4.25,398.29Z"/>
      <path class="cls-c5" d="M3.26,404.54A2.81,2.81,0,1,1,8,402.45,2.82,2.82,0,0,1,3.26,404.54Z"/>
      <path class="cls-c5" d="M31.5,368.25a4.34,4.34,0,1,0,4-4.66A4.33,4.33,0,0,0,31.5,368.25Z"/>
      <path class="cls-c5" d="M36,371.59a2.79,2.79,0,1,1,1.1-.31A2.91,2.91,0,0,1,36,371.59Z"/>
      <path class="cls-c5" d="M11.38,378.86a4.34,4.34,0,1,1-6.11.66A4.33,4.33,0,0,1,11.38,378.86Z"/>
      <path class="cls-c5" d="M7.64,384.89a2.81,2.81,0,1,1,3.94-.43A2.8,2.8,0,0,1,7.64,384.89Z"/>
      <path class="cls-c5" d="M36.77,396.61l15.67-17.34-.61-.55L35.5,396.79l9.26-22.53L44,374l-8.9,21.62L36,372.21l-.82,0-.88,24.34-7.38-23.21-.78.25,7.08,22.28L18.81,377.4l-.64.5,15,19.22-20.58-13-.44.7,19.75,12.5L9,392.39l-.17.8,23.82,5.1L8.52,401.54l.11.81,23.16-3.12L11.14,410.18l.38.72,46.33-24.41-.38-.72Z"/>
      <rect class="cls-c5" x="57.5" y="390.01" width="3.51" height="109.77" transform="translate(-200.59 78.94) rotate(-27.79)"/>
      <path class="cls-c12" d="M80.74,495.38s35.55-26.39,40.42-37.77S116,447.53,116,447.53s14.35-20.34,10.54-27.07-11.74,1.87-11.74,1.87,6.66-27.52.87-29.05C104.88,390.43,96,420,96,420s.79-12.29-6-10.64c-10.18,2.5-4.79,29-4.79,29s-3.25-4.69-8.83-.23C66.43,446.15,80.74,495.38,80.74,495.38Z"/>
      <path class="cls-c11" d="M74.94,438.83c5.58-4.47,10.34-.46,10.34-.46s-5.39-26.47,4.79-29c6.75-1.65,6,10.64,6,10.64s8.85-29.61,19.63-26.76l-35.19,102C78.9,488.92,65.58,446.31,74.94,438.83Z"/>
      <path class="cls-c6" d="M80.78,494.46s36.44,0,44-6.35S123,481.3,123,481.3s17.41-9.24,17.16-15.41S134,461,134,461s12-10.78,9.57-16c-3.8-8-21,7.2-21,7.2s1.31-6.11-4-7.39c-8-1.92-16.22,21-16.22,21s3.85-10.31-1.68-9.17C90.75,458.64,80.78,494.46,80.78,494.46Z"/>
      <path class="cls-c2" d="M79.27,496.49S46.94,468.89,43,457.78s5.53-9.29,5.53-9.29-12.42-20.22-8.39-26.38,11.06,2.48,11.06,2.48-4.67-26.58.93-27.69c10.44-2.06,17.06,26.65,17.06,26.65s0-11.74,6.31-9.76c9.54,3,2.81,27.86,2.81,27.86s3.52-9.3,8.56-4.71C95.9,445.17,79.27,496.49,79.27,496.49Z"/>
      <path class="cls-c12" d="M88,435.63c-5.84-3.5-8.74,1.17-8.74,1.17s5.76-20-3.78-23c-6.32-2-6.31,9.76-6.31,9.76s-6.62-28.71-17.06-26.65l27.3,99.19C81.3,490.13,95,439.81,88,435.63Z"/>
      <path class="cls-c12" d="M76,492.53s-35.52,0-40.46-.57.52-5,.52-5-11,.4-12.74-2.29S26.16,481,26.16,481s-11-3.19-10.48-5.53c1-4.36,13.14-1.52,13.14-1.52s-4.52-2.19-2.68-4.23C28.9,466.6,40.72,475,40.72,475s-4.43-8.39-1.82-9.46C43.6,463.59,76,492.53,76,492.53Z"/>
      <path class="cls-c5" d="M50.37,532.51h59.12a35.38,35.38,0,0,0,12-26.74A31.84,31.84,0,0,0,118,491.46l-76.22.85a33.84,33.84,0,0,0-3.15,14.83A35.17,35.17,0,0,0,50.37,532.51Z"/>
      <path class="cls-c12" d="M301.28,314.12c1.42-4.69-1.72-9.82-6.4-9.62a.78.78,0,0,0-.05,1.55,4.24,4.24,0,0,1,3.7,3.24,5.48,5.48,0,0,1,.12,2.51c-.3,1.6-1.06,2.16-2.1,3.7l1.83.91a9.86,9.86,0,0,1,2.75,15.23,9.26,9.26,0,0,1-6.58,2.93c-1.94.51-3.33,1.59-3.66,3.53a24.42,24.42,0,0,0,.43,6.92.85.85,0,0,0,1.64,0,53.31,53.31,0,0,0,1-6.55l0-.1,0-.08a1.65,1.65,0,0,1,1.07-.62,11.86,11.86,0,0,0,7.85-3C309.14,329.32,308.69,318.66,301.28,314.12Zm-6,23.55Z"/>
      <path class="cls-c1" d="M87.43,375.51h39.26a6.57,6.57,0,0,0,6.31-6.8h0a6.56,6.56,0,0,0-6.31-6.8H87.43a11.06,11.06,0,0,1,.28,13.21Z"/>
      <path class="cls-c5" d="M132.48,368.71h0a6.59,6.59,0,0,0-6.38-6.8H86.72a.34.34,0,0,1-.33-.36h0a.34.34,0,0,1,.33-.34H149.2a7.28,7.28,0,0,1,7,7.5h0a7.28,7.28,0,0,1-7,7.5H86.72a.34.34,0,0,1-.33-.35h0a.34.34,0,0,1,.33-.35H126.1A6.6,6.6,0,0,0,132.48,368.71Z"/>
      <path class="cls-c5" d="M431,39.17c2.62,5.67,1,12.07-3.79,14.39s-11-.39-13.8-6.13-1.16-12.3,3.67-14.65a8.36,8.36,0,0,1,4-.84L412.63,16,391.91,35.33l14.47,27.23h0a.41.41,0,0,0,.05.09c2.8,5.74,1.16,12.3-3.67,14.65s-11-.39-13.81-6.13-1.15-12.29,3.67-14.65a8.47,8.47,0,0,1,4-.83l-15.5-29.16a2.2,2.2,0,0,1,.31-2.66L408,.4a2,2,0,0,1,3,.86l20.14,37.89Z"/>
      <path class="cls-c2" d="M469.21,254.84a32,32,0,1,0,42.67-14.92A31.94,31.94,0,0,0,469.21,254.84Z"/>
      <path class="cls-c13" d="M511.19,280.69a17.09,17.09,0,1,1-30.79-14.83Z"/>
      <path class="cls-c5" d="M542.71,164.62l10,2s14.61-6.82,15.73-10.11.6-10.87,2.74-11.34a6.6,6.6,0,0,1,8.05,4.74c1.19,3.65-3,15.14-2,16.18.63.65,6.34,1.95,10.53,2.83a7.56,7.56,0,0,1,5.7,5.42h0a4.16,4.16,0,0,1-2,4.75l-2.63,1.41,1.23,2.74a4.15,4.15,0,0,1-2,5.43l-2,1,.89,1.66a4.14,4.14,0,0,1-2,5.77l-1.8.78.14.48a4.15,4.15,0,0,1-2.42,5l-1.79.71-26.62-5.26a18.47,18.47,0,0,1-7-2.95l-9-3.43a2.13,2.13,0,0,1-1.31-2.44l5.06-23.65A2.12,2.12,0,0,1,542.71,164.62Z"/>
      <polygon class="cls-c11" points="749.83 113.56 739.27 121.37 725.48 111.42 708.71 121.58 696.48 115.82 691.39 121.67 707.75 129.37 723.65 119.75 737.99 130.1 753.88 118.34 749.83 113.56"/>
      <path class="cls-c11" d="M495.34,158.56l-2.68.75a2.16,2.16,0,0,1-2.61-1.29l-.1-.25a4.82,4.82,0,0,0-5.81-2.87l-15.76,4.47a4.82,4.82,0,0,0-3.43,5.49l0,.27a2.17,2.17,0,0,1-1.54,2.47L454.9,170a11.75,11.75,0,0,0-8.09,14.5L451,199.2a11.73,11.73,0,0,0,14.49,8.09l40.43-11.46a11.75,11.75,0,0,0,8.1-14.5l-4.17-14.68A11.73,11.73,0,0,0,495.34,158.56Z"/>
      <path class="cls-c1" d="M485.15,182.43a12.56,12.56,0,1,1-15.52-8.65A12.56,12.56,0,0,1,485.15,182.43Z"/>
      <path class="cls-c11" d="M482.21,183.27a9.51,9.51,0,1,1-11.74-6.56A9.51,9.51,0,0,1,482.21,183.27Z"/>
      <polygon class="cls-c6" points="641.48 107.47 633.17 108.91 630.92 117.21 621.5 118.16 621.83 127.73 611.22 129.28 610.44 138.14 600.47 141.3 599.28 137.52 606.73 135.16 607.55 125.82 617.75 124.33 617.41 114.59 627.82 113.54 630.01 105.44 637.71 104.11 638.04 98.48 641.99 98.71 641.48 107.47"/>
      <path class="cls-c5" d="M384,191.15l-56.07,8a10,10,0,0,1-11.34-8.51L312,158.35A10,10,0,0,1,320.53,147l56.07-8A10,10,0,0,1,388,147.52l4.6,32.28A10,10,0,0,1,384,191.15Z"/>
      <path class="cls-c6" d="M366.57,168.22a2.19,2.19,0,0,0-.53-3.76l-22.34-9a2.19,2.19,0,0,0-3,2.34l3.4,23.84a2.19,2.19,0,0,0,3.52,1.41Z"/>
      <polygon class="cls-c11" points="405.75 261.86 401.55 253.45 414.32 245.2 409.7 232.15 418.25 224.42 414.33 220.09 402.89 230.44 407.28 242.8 393.99 251.38 400.31 264.03 405.75 261.86"/>
      <polygon class="cls-c5" points="433.09 287.55 418.07 284.52 414.33 298.3 399.41 295.96 394.21 308.69 382.75 308.77 382.79 314.56 398.11 314.46 403.04 302.4 418.57 304.83 422.25 291.27 435.86 294.02 433.09 287.55"/>
      <path class="cls-c2" d="M578.16,49.54c-.65-4.06-5.74-6.64-11.28-5.46A215.4,215.4,0,0,0,498.26,71.7c-4.83,3-6.64,8.41-4.21,11.83h0c19.19,27.56,11.79,17.47,23.89,32.2a8.91,8.91,0,0,0,11.53,1.78h0a9,9,0,0,0,3.32-11.77l-3.68-6.81c-1.42-2.59-.17-6,2.85-7.52A183.59,183.59,0,0,1,556.57,81.3c3.21-1,6.5.48,7.29,3.3.71,2.45,1.43,4.9,2.14,7.35a8.81,8.81,0,0,0,10.57,5.87h0a9,9,0,0,0,7-9.34C583.16,84,579.6,58,578.16,49.54Z"/>
      <path class="cls-c11" d="M511.29,74.89a6.22,6.22,0,0,1,3.33-.4l-1.9-4.65-6,2.45,1.9,4.64A6.47,6.47,0,0,1,511.29,74.89Z"/>
      <path class="cls-c11" d="M507.82,83.17a6.27,6.27,0,0,1-.41-3.32l-4.64,1.9,2.45,6,4.64-1.9A6.26,6.26,0,0,1,507.82,83.17Z"/>
      <path class="cls-c11" d="M516.1,86.65a6.4,6.4,0,0,1-3.33.4l1.9,4.65,6-2.45-1.9-4.65A6.41,6.41,0,0,1,516.1,86.65Z"/>
      <path class="cls-c11" d="M517.53,75.71a6.21,6.21,0,0,1,2,2.65,6.32,6.32,0,0,1,.41,3.33l4.65-1.9-2.45-6Z"/>
      <path class="cls-c11" d="M517.28,79.3a3.87,3.87,0,1,1-5-2.12A3.87,3.87,0,0,1,517.28,79.3Z"/>
      <path class="cls-c11" d="M570.83,57.94A8.29,8.29,0,1,1,560,53.41,8.29,8.29,0,0,1,570.83,57.94Z"/>
      <path class="cls-c2" d="M281,63.18c-9.61,14.33,3.21,33.3,20.18,29.83a13,13,0,0,1,8.93,1.46l9.34,5.24a5.67,5.67,0,0,0,7.47-1.79l3.64-5.42a5.67,5.67,0,0,0-1.18-7.59c-8.44-6.69-12-8.54-13.13-14.36C313,53.53,290.57,48.86,281,63.18Z"/>
      <path class="cls-c6" d="M319.76,93.64h0a1.56,1.56,0,0,1-2.18.41l-18.91-13-7,.85a1.57,1.57,0,1,1-.38-3.12l8.14-1,19.89,13.67A1.57,1.57,0,0,1,319.76,93.64Z"/>
      <path class="cls-c6" d="M324.94,87.65h0a1.58,1.58,0,0,0-.46-2.18l-19.2-12.57-1.85-6.76a1.57,1.57,0,0,0-1.93-1.1,1.58,1.58,0,0,0-1.1,1.93l2.17,7.91,20.19,13.22A1.58,1.58,0,0,0,324.94,87.65Z"/>
      <path class="cls-c11" d="M309.84,94.35l.23.12,9.34,5.24a5.67,5.67,0,0,0,7.47-1.79l3.64-5.42a5.67,5.67,0,0,0-1.18-7.59c-3.75-3-6.55-5-8.59-6.83Z"/>
      <path class="cls-c2" d="M319.82,41.78c1.17-2.35,1.42-2.11,1.23-4.76-.11-1.65-2.41-2.68-3.78-1.88-2.55,1.49-3.7,4.65-5,7.2l-4,7.61a3.34,3.34,0,0,0,.89,4.5c1.34.9,3.68.67,4.5-.88C318.56,44.29,318.11,45.18,319.82,41.78Z"/>
      <path class="cls-c2" d="M297.59,107.45a38.66,38.66,0,0,0,.62,6.42c.28,2.17.41,4.21,1.45,6.18s4.52,2.16,5.08-.33a10.11,10.11,0,0,0,.3-3.63c-.12-1-.27-2-.41-2.94a37.68,37.68,0,0,0-1-6.1,3.06,3.06,0,0,0-6,.4Z"/>
      <path class="cls-c2" d="M273.65,114.93a35.84,35.84,0,0,1,4.62-7.07,37.85,37.85,0,0,0,2.75-3.08c.81-1.24,1.89-2.5,2-4.07a2,2,0,0,0-1.82-2.06c-1.71-.24-3.2.89-4.58,1.69s-2.68,2.6-3.74,3.9a39.62,39.62,0,0,0-5.18,8.7,3.16,3.16,0,0,0,2,4c1.78.6,3.24-.45,4-2Z"/>
      <path class="cls-c2" d="M250.25,85.73a89.28,89.28,0,0,0,9-3.29c5.93-2.57,7.43-3.54,7.77-5.93a2.8,2.8,0,0,0-1.87-2.76c-1.6-.73-3.13.14-4.55.86s-2.62,1.29-3.95,1.88A71.6,71.6,0,0,1,249,79.38a3.33,3.33,0,0,0-2.54,3.8c.31,1.57,2.12,3.07,3.79,2.55Z"/>
      <path class="cls-c2" d="M329.15,70.86c3.33-1,6.66-1.93,9.92-3.12a3.06,3.06,0,0,0,1.77-2.63,3.13,3.13,0,0,0-3.74-3.27c-3.11.74-6.15,1.72-9.2,2.65a3.34,3.34,0,0,0-2.56,3.81,3.27,3.27,0,0,0,3.81,2.56Z"/>
      <path class="cls-c2" d="M251.68,50.71c2.62,1.47,5.27,2.9,7.92,4.34s5.53,3.45,8.67,3.31c1.51-.07,3.15-1.65,2.17-3.24-1.83-3-3.85-3.64-7.26-5.42-2.67-1.39-5.35-2.79-8.05-4.14a3.2,3.2,0,0,0-4.3.84,3.13,3.13,0,0,0,.85,4.31Z"/>
      <path class="cls-c2" d="M275.91,23.2c.26,3,.57,6,.88,9s.26,6.51,2.14,9c.91,1.21,3.14,1.68,3.91,0,1.44-3.2.83-5.23.38-9-.35-3-.71-6-1.11-9A3.19,3.19,0,0,0,279,20.08a3.13,3.13,0,0,0-3.08,3.12Z"/>
      <path class="cls-c5" d="M353.33,282.67c-2.86-.74-5.29-2.95-5.43-4.94s1.88-2.91,4.51-2.06,5.06,3.06,5.43,4.94S356.19,283.41,353.33,282.67Z"/>
      <path class="cls-c11" d="M350,257.08l-11.07-4.16-9.71,6.77a1.62,1.62,0,0,1-2.55-1.41l.53-11.81-9.43-7.14a1.62,1.62,0,0,1,.55-2.86l11.4-3.15,3.88-11.18a1.63,1.63,0,0,1,2.89-.36l6.51,9.87,11.83.23a1.63,1.63,0,0,1,1.24,2.64l-7.38,9.25,3.44,11.32A1.62,1.62,0,0,1,350,257.08Z"/>
      <path class="cls-c5" d="M460.31,85.53l-7.19-6.29-9.25,2.35a1.31,1.31,0,0,1-1.53-1.79L446.1,71,441,63a1.32,1.32,0,0,1,1.23-2l9.51.87,6.11-7.35a1.32,1.32,0,0,1,2.29.55l2.11,9.31,8.87,3.54a1.32,1.32,0,0,1,.19,2.35L463.1,75.1l-.62,9.52A1.31,1.31,0,0,1,460.31,85.53Z"/>
      <polygon class="cls-c12" points="461.46 133.69 453.78 126.52 443.85 130.53 435.81 121.89 426.55 129.42 417.03 120.05 407.65 125.93 397.01 118.41 399.86 114.38 407.81 120.01 417.71 113.8 426.86 122.81 436.28 115.15 445.15 124.69 454.85 120.77 461.97 127.42 467.8 123.51 470.54 127.61 461.46 133.69"/>
      <path class="cls-c2" d="M358.15,345.76c-18.33.29-32.68-4.59-46.13-16.16,1.59-.65,7.2-2.43,8.13-2.61-12.32-12.63-15.76-25.42-15.28-40.73A44.25,44.25,0,0,0,326,293.13a40.84,40.84,0,0,0,10.18,32.55,29.6,29.6,0,0,0,5.65-4.09C344,330,351.74,338.2,358.15,345.76Z"/>
      <polygon class="cls-c12" points="702.95 93.33 677.03 77.55 696.9 39.99 698.27 56.5 711.37 48.81 710.87 62.93 727.07 58.37 702.95 93.33"/>
      <path class="cls-c2" d="M676.6,151.05s7.58-.66,12.14,5.61c4.07,5.6,1.45,13.39-4.86,18-7.31,5.3-19.77,6.33-37.19-1.86-2.41-19.11,2.42-30.64,9.72-35.95,6.31-4.59,14.54-4.67,18.6.93C679.57,144,676.6,151.05,676.6,151.05Z"/>
      <path class="cls-c11" d="M613.54,81.09c0,2.48-2.51,4.49-5.61,4.49s-5.6-2-5.6-4.49,2.51-4.48,5.6-4.48S613.54,78.61,613.54,81.09Z"/>
      <polygon class="cls-c12" points="423.09 151.98 418.28 146.93 420.31 145 422.97 147.79 426.59 143.54 428.72 145.36 423.09 151.98"/>
      <polygon class="cls-c2" points="749.71 85.52 743.49 88.68 742.23 86.18 745.67 84.43 742.63 79.75 744.99 78.22 749.71 85.52"/>
    </g>
  </g>
</svg>
